<?xml version="1.0" standalone="no"?><!DOCTYPE svg PUBLIC "-//W3C//DTD SVG 1.1//EN" "http://www.w3.org/Graphics/SVG/1.1/DTD/svg11.dtd"><svg t="1721569304363" class="icon" viewBox="0 0 1025 1024" version="1.1" xmlns="http://www.w3.org/2000/svg" p-id="2795" xmlns:xlink="http://www.w3.org/1999/xlink" width="200.1953125" height="200"><path d="M1.024 512c0 282.624 228.864 512 511.488 512s512-228.864 512-511.488v-0.512c0-282.624-228.864-512-511.488-512S1.024 228.864 1.024 512c0-0.512 0 0 0 0z" fill="#B247F8" p-id="2796"></path><path d="M0 516.608c0 70.656 57.344 128 128 128s128-57.344 128-128-57.344-128-128-128c-70.656-0.512-128 56.832-128 128zM689.664 284.672c0 70.656 57.344 128 128 128s128-57.344 128-128-57.344-128-128-128-128 57.344-128 128z" fill="#FFFFFF" opacity=".07" p-id="2797"></path><path d="M770.56 490.496c2.56-6.144 2.048-12.8-2.56-17.92l-129.024-153.088c-3.072-3.584-7.68-6.144-12.8-6.144H331.264c-3.072 0-6.144 1.024-8.704 2.56-2.048 1.024-4.096 2.048-6.144 4.096L181.76 460.8c-6.656 6.656-6.144 17.408 0.512 23.552 3.072 3.072 7.68 4.608 11.776 4.608 4.608 0 8.704-1.536 12.288-5.12l49.152-51.2v194.56c0 9.216 7.68 16.896 16.896 16.896 9.216 0 16.896-7.68 16.896-16.896V397.312l40.96-42.496 117.76 139.264c3.072 3.584 7.68 6.144 12.8 6.144h294.912c6.144 0 11.776-4.096 14.848-9.728z m-302.592-24.064L367.104 347.136h250.88l100.864 119.296h-250.88z" fill="#FFFFFF" p-id="2798"></path><path d="M823.296 626.176l-73.728-87.552c-3.072-3.584-7.68-6.144-12.8-6.144H568.32c-3.072 0-5.632 0.512-8.192 2.048-2.048 1.024-3.584 2.048-5.632 3.584l-76.8 80.384c-6.656 6.656-6.144 17.408 0.512 23.552 3.072 3.072 7.68 4.608 11.776 4.608 4.608 0 8.704-1.536 12.288-5.12l15.36-16.384v93.184c0 9.216 7.68 16.896 16.896 16.896s16.896-7.68 16.896-16.896v-128.512l15.872-16.384 61.952 73.728c3.072 3.584 7.68 6.144 12.8 6.144h168.448c6.656 0 12.288-3.584 15.36-9.728 2.56-5.632 1.536-12.288-2.56-17.408z m-173.568-6.144l-45.568-53.76h124.416l45.568 53.76h-124.416zM344.064 445.44c-9.216 0-16.896 7.68-16.896 16.896V527.36c0 9.216 7.68 16.896 16.896 16.896 9.216 0 16.896-7.68 16.896-16.896V462.336c0-9.216-7.168-16.896-16.896-16.896z" fill="#FFFFFF" p-id="2799"></path><path d="M577.024 620.544c-9.216 0-16.896 7.68-16.896 16.896v19.968c0 9.216 7.68 16.896 16.896 16.896s16.896-7.68 16.896-16.896v-19.968c-0.512-9.728-7.68-16.896-16.896-16.896z" fill="#FFFFFF" p-id="2800"></path></svg>