<?xml version="1.0" standalone="no"?><!DOCTYPE svg PUBLIC "-//W3C//DTD SVG 1.1//EN" "http://www.w3.org/Graphics/SVG/1.1/DTD/svg11.dtd"><svg t="1721569297833" class="icon" viewBox="0 0 1024 1024" version="1.1" xmlns="http://www.w3.org/2000/svg" p-id="2474" xmlns:xlink="http://www.w3.org/1999/xlink" width="200" height="200"><path d="M512 909.061224c-218.906122 0-397.061224-178.155102-397.061224-397.061224s178.155102-397.061224 397.061224-397.061224 397.061224 178.155102 397.061224 397.061224-178.155102 397.061224-397.061224 397.061224z" fill="#F2CB51" p-id="2475"></path><path d="M707.918367 537.077551h-198.530612c-10.971429 0-19.853061-8.881633-19.853061-19.853061 0-10.971429 8.881633-19.853061 19.853061-19.853061h198.530612c10.971429 0 19.853061 8.881633 19.853062 19.853061 0 10.44898-8.881633 19.853061-19.853062 19.853061z" fill="#AA1D32" p-id="2476"></path><path d="M509.387755 537.077551c-10.971429 0-19.853061-8.881633-19.853061-19.853061V269.061224c0-10.971429 8.881633-19.853061 19.853061-19.853061s19.853061 8.881633 19.853061 19.853061V517.22449c0 10.44898-8.881633 19.853061-19.853061 19.853061z" fill="#E5404F" p-id="2477"></path></svg>