<?xml version="1.0" standalone="no"?><!DOCTYPE svg PUBLIC "-//W3C//DTD SVG 1.1//EN" "http://www.w3.org/Graphics/SVG/1.1/DTD/svg11.dtd"><svg t="1721569293126" class="icon" viewBox="0 0 1024 1024" version="1.1" xmlns="http://www.w3.org/2000/svg" p-id="2309" xmlns:xlink="http://www.w3.org/1999/xlink" width="200" height="200"><path d="M733.2 395.786h59.728c7.046 0 12.758-5.716 12.758-12.763V267.625a4.314 4.314 0 0 0-1.267-3.087c-10.699-10.471-23.429-3.087-23.429 7.279v95.018a4.255 4.255 0 0 1-4.252 4.257H729a4.31 4.31 0 0 0-3.087 1.266c-10.462 10.658-3.079 23.428 7.287 23.428z m0 0" fill="#EF8031" p-id="2310"></path><path d="M671.463 383.839c0 6.822 5.526 12.348 12.348 12.348 6.816 0 12.348-5.526 12.348-12.348 0-6.821-5.531-12.347-12.348-12.347-6.822 0-12.348 5.527-12.348 12.347z m0 0" fill="#EF8031" p-id="2311"></path><path d="M399.868 122.494H115.876v283.991c0 45.463 36.853 82.316 82.316 82.316h283.991V204.81c0.001-45.463-36.852-82.316-82.315-82.316z m16.463 300.454H198.193c-9.092 0-16.463-7.372-16.463-16.463V188.347h218.138c9.092 0 16.463 7.371 16.463 16.463v218.138z m0 0" fill="#F4D124" p-id="2312"></path><path d="M531.573 204.81v283.991h283.991c45.463 0 82.316-36.853 82.316-82.316V122.494H613.89c-45.463 0-82.317 36.853-82.317 82.316z m283.991 218.138H597.427V204.81c0-9.092 7.371-16.463 16.463-16.463h218.139v218.138c-0.001 9.092-7.373 16.463-16.465 16.463zM115.876 618.859v283.99h283.991c45.463 0 82.316-36.853 82.316-82.315V536.543h-283.99c-45.464 0-82.317 36.858-82.317 82.316z m283.992 218.138H181.729V618.859c0-9.092 7.372-16.464 16.463-16.464H416.33v218.139c0.001 9.096-7.371 16.463-16.462 16.463z m0 0" fill="#55B5AF" p-id="2313"></path><path d="M815.564 536.543H531.573v283.991c0 45.463 36.854 82.315 82.316 82.315H897.88v-283.99c0.001-45.458-36.853-82.316-82.316-82.316z m16.464 300.454H613.89c-9.092 0-16.463-7.367-16.463-16.463V602.396h218.138c9.092 0 16.464 7.372 16.464 16.464v218.137z m0 0" fill="#EF8031" p-id="2314"></path></svg>