<?xml version="1.0" standalone="no"?><!DOCTYPE svg PUBLIC "-//W3C//DTD SVG 1.1//EN" "http://www.w3.org/Graphics/SVG/1.1/DTD/svg11.dtd"><svg t="1721569307199" class="icon" viewBox="0 0 1024 1024" version="1.1" xmlns="http://www.w3.org/2000/svg" p-id="2956" xmlns:xlink="http://www.w3.org/1999/xlink" width="200" height="200"><path d="M511.232 516.608m-450.816 0a450.816 450.816 0 1 0 901.632 0 450.816 450.816 0 1 0-901.632 0Z" fill="#FFBC42" p-id="2957"></path><path d="M614.4512 551.5264c-58.624 66.7136-165.6832 56.6784-211.0464-0.5632-23.552 27.648-53.1968 44.3904-89.6 46.592-63.0272 3.7376-116.7872-32.7168-129.6896-98.048-3.9424-20.0192 1.8432-43.776 8.8576-63.7952 26.368-75.264 84.48-119.1936 155.4432-147.968 24.1664-9.8304 50.0736-15.4112 75.4688-22.016 4.2496-1.1264 11.52 1.1264 14.3872 4.4032 39.7824 45.568 112.7424 36.9664 141.0048-0.768 2.2016-2.9696 8.448-5.1712 12.1344-4.4544 81.7664 15.9744 153.7536 49.664 205.2608 117.8624 20.48 27.136 35.5328 57.856 39.2192 92.0064 5.4784 50.8928-33.4848 103.2192-86.016 117.6576-53.0432 14.6432-97.6384-0.5632-135.424-40.9088z" fill="#FFFFFF" p-id="2958"></path><path d="M760.2176 636.4672c-13.7216 50.5856-26.3168 98.5088-39.8336 146.1248-5.376 18.8928-17.7664 27.9552-37.4272 28.0064-116.1216 0.256-232.192 0.256-348.3136 0.0512-20.0192-0.0512-31.3344-8.0384-36.6592-26.4704-14.1312-48.9984-27.4432-98.2016-41.9328-150.2208 57.9584 15.6672 108.5952 6.912 149.5552-37.1712 54.3744 62.976 150.1696 62.6688 204.8 1.4336 40.8064 43.4688 90.5216 55.1936 149.8112 38.2464zM558.4896 215.9616c-0.3584 29.3888-21.4016 49.408-51.2 48.7936-26.7776-0.512-49.7152-23.9104-49.0496-50.0224 0.6656-26.88 23.7056-49.4592 50.176-49.152 28.9792 0.3584 50.3808 21.9136 50.0736 50.3808z" fill="#FFFFFF" p-id="2959"></path></svg>