<?xml version="1.0" standalone="no"?><!DOCTYPE svg PUBLIC "-//W3C//DTD SVG 1.1//EN" "http://www.w3.org/Graphics/SVG/1.1/DTD/svg11.dtd"><svg t="1721569181485" class="icon" viewBox="0 0 1044 1024" version="1.1" xmlns="http://www.w3.org/2000/svg" p-id="1415" xmlns:xlink="http://www.w3.org/1999/xlink" width="203.90625" height="200"><path d="M422.138776 902.914766v58.391356a41.795918 41.795918 0 0 0 41.304201 41.795919h117.028572a41.795918 41.795918 0 0 0 42.779351-41.795919v-58.391356z m-20.89796-20.897959h242.416327v79.289315a62.693878 62.693878 0 0 1-62.693878 62.693878H463.442977a62.693878 62.693878 0 0 1-62.693877-62.693878z" fill="#3F4951" p-id="1416"></path><path d="M422.138776 902.914766H623.2509v58.391356a41.795918 41.795918 0 0 1-41.795918 41.795919h-118.012005a41.795918 41.795918 0 0 1-41.795918-41.795919z" fill="#AED2F0" p-id="1417"></path><path d="M522.44898 842.802401c243.768547 0 441.315726-184.393758 441.315726-410.952221S766.217527 20.897959 522.44898 20.897959 81.133253 205.291717 81.133253 431.85018s197.915966 410.952221 441.315727 410.952221z m0 20.897959c-254.955102 0-462.213685-192.9988-462.213686-431.85018S267.493878 0 522.44898 0s462.213685 192.9988 462.213685 431.85018-207.258583 431.85018-462.213685 431.85018z" fill="#534341" p-id="1418"></path><path d="M81.133253 431.85018a441.315726 410.952221 0 1 0 882.631453 0 441.315726 410.952221 0 1 0-882.631453 0Z" fill="#FFFFFF" p-id="1419"></path><path d="M281.753661 333.87563a100.310204 100.310204 0 1 1 100.310205-100.187275 100.187275 100.187275 0 0 1-100.310205 100.187275z m481.390637 0a100.310204 100.310204 0 1 1 100.310204-100.187275 100.310204 100.310204 0 0 1-100.310204 100.187275z" fill="#FDC6B2" p-id="1420"></path><path d="M462.213685 141.122689a20.037455 20.037455 0 0 1 20.160385 20.160384v19.422809a20.160384 20.160384 0 1 1-40.19784 0v-19.422809a20.037455 20.037455 0 0 1 20.037455-20.160384z m120.470589 0a20.037455 20.037455 0 0 1 20.037455 20.160384v19.422809a20.160384 20.160384 0 1 1-40.197839 0v-19.422809a20.037455 20.037455 0 0 1 20.160384-20.160384z" fill="#534A41" p-id="1421"></path><path d="M351.454502 201.357983a10.44898 10.44898 0 0 1 20.897959 0c0 88.754862 67.365186 160.545498 150.096519 160.545498s149.973589-71.790636 149.973589-160.545498a10.44898 10.44898 0 1 1 20.897959 0c0 100.064346-76.461945 181.443457-170.994478 181.443458s-170.871549-81.379112-170.871548-181.443458z" fill="#534A41" p-id="1422"></path><path d="M20.897959 438.857143a501.55102 501.55102 0 0 0 1003.102041 0zM0 417.959184h1044.897959v20.897959a522.44898 522.44898 0 0 1-1044.897959 0z" fill="#3F4951" p-id="1423"></path><path d="M20.897959 438.857143h1003.102041a501.55102 501.55102 0 0 1-1003.102041 0z" fill="#AED2F0" p-id="1424"></path></svg>